<?xml version="1.0" encoding="iso-8859-1"?>
<!-- Generator: Adobe Illustrator 18.0.0, SVG Export Plug-In . SVG Version: 6.00 Build 0)  -->
<!DOCTYPE svg PUBLIC "-//W3C//DTD SVG 1.1//EN" "http://www.w3.org/Graphics/SVG/1.1/DTD/svg11.dtd">
<svg version="1.1" id="Capa_1" xmlns="http://www.w3.org/2000/svg" xmlns:xlink="http://www.w3.org/1999/xlink" x="0px" y="0px"
	 viewBox="0 0 55 55" style="enable-background:new 0 0 55 55;" xml:space="preserve">
<g>
	<path d="M22,7h11c0.553,0,1-0.448,1-1s-0.447-1-1-1H22c-0.553,0-1,0.448-1,1S21.447,7,22,7z"/>
	<path d="M18,14h19c0.553,0,1-0.448,1-1s-0.447-1-1-1H18c-0.553,0-1,0.448-1,1S17.447,14,18,14z"/>
	<path d="M16,21h23c0.553,0,1-0.448,1-1s-0.447-1-1-1H16c-0.553,0-1,0.448-1,1S15.447,21,16,21z"/>
	<path d="M14,27h27c0.553,0,1-0.448,1-1s-0.447-1-1-1H14c-0.553,0-1,0.448-1,1S13.447,27,14,27z"/>
	<path d="M31,35h-7c-0.553,0-1,0.448-1,1s0.447,1,1,1h7c0.553,0,1-0.448,1-1S31.553,35,31,35z"/>
	<path d="M33,30H22c-0.553,0-1,0.448-1,1s0.447,1,1,1h11c0.553,0,1-0.448,1-1S33.553,30,33,30z"/>
	<path d="M53.995,32.976c-0.003-0.115-0.026-0.228-0.068-0.337c-0.011-0.028-0.026-0.052-0.04-0.079
		c-0.021-0.043-0.037-0.088-0.064-0.128l-9.717-14.104c-0.029-0.041-0.069-0.068-0.103-0.104C42.625,13.284,42,8.488,42,3.239V1
		c0-0.552-0.447-1-1-1H13c-0.553,0-1,0.448-1,1v3.5c0,5.306-0.675,10.148-2.15,15.301c-0.008,0.01-0.019,0.016-0.026,0.026
		L1.176,32.434c-0.027,0.04-0.042,0.084-0.063,0.126c-0.013,0.027-0.029,0.051-0.04,0.08c-0.042,0.109-0.065,0.222-0.068,0.337
		C1.004,32.985,1,32.992,1,33v21c0,0.552,0.447,1,1,1h51c0.553,0,1-0.448,1-1V33C54,32.992,53.995,32.985,53.995,32.976z
		 M46.42,25.212L51.097,32h-1.942l-1.762-4.444C47.055,26.786,46.73,26.004,46.42,25.212z M14,4.5V2h26v1.239
		c0,7.85,1.441,14.982,4.586,22.769c0.308,0.784,0.628,1.559,0.962,2.318L47.003,32H37c-0.553,0-1,0.448-1,1c0,4.561-3.654,8-8.5,8
		S19,37.561,19,33c0-0.552-0.447-1-1-1H7.699l1.686-4.65c0.242-0.611,0.475-1.239,0.703-1.876C12.807,18.118,14,11.731,14,4.5z
		 M7.449,26.824L5.571,32H3.898L7.449,26.824z M52,53H3V34h3.272h10.774c0.494,5.196,4.822,9,10.453,9s9.959-3.804,10.453-9h10.521
		H52V53z"/>
</g>
<g>
</g>
<g>
</g>
<g>
</g>
<g>
</g>
<g>
</g>
<g>
</g>
<g>
</g>
<g>
</g>
<g>
</g>
<g>
</g>
<g>
</g>
<g>
</g>
<g>
</g>
<g>
</g>
<g>
</g>
</svg>
