<?xml version="1.0" encoding="iso-8859-1"?>
<!-- Generator: Adobe Illustrator 18.0.0, SVG Export Plug-In . SVG Version: 6.00 Build 0)  -->
<!DOCTYPE svg PUBLIC "-//W3C//DTD SVG 1.1//EN" "http://www.w3.org/Graphics/SVG/1.1/DTD/svg11.dtd">
<svg version="1.1" id="Capa_1" xmlns="http://www.w3.org/2000/svg" xmlns:xlink="http://www.w3.org/1999/xlink" x="0px" y="0px"
	 viewBox="0 0 53.943 53.943" style="enable-background:new 0 0 53.943 53.943;" xml:space="preserve">
<g>
	<path d="M41.458,15.072c0.268,0,0.534-0.106,0.731-0.317l0.682-0.73c0.377-0.404,0.354-1.037-0.049-1.414
		c-0.404-0.376-1.037-0.354-1.414,0.049l-0.682,0.73c-0.377,0.404-0.354,1.037,0.049,1.414
		C40.969,14.983,41.214,15.072,41.458,15.072z"/>
	<path d="M38.729,17.996c0.268,0,0.534-0.106,0.731-0.318l0.682-0.731c0.377-0.404,0.354-1.037-0.05-1.413
		c-0.402-0.376-1.035-0.354-1.413,0.05l-0.682,0.731c-0.377,0.404-0.354,1.037,0.05,1.413C38.24,17.908,38.485,17.996,38.729,17.996
		z"/>
	<path d="M35.951,18.506l-0.683,0.731c-0.376,0.404-0.354,1.037,0.049,1.414c0.193,0.18,0.438,0.269,0.683,0.269
		c0.268,0,0.534-0.106,0.731-0.317l0.683-0.731c0.376-0.404,0.354-1.037-0.049-1.414C36.96,18.081,36.328,18.103,35.951,18.506z"/>
	<path d="M44.187,12.148c0.268,0,0.534-0.106,0.731-0.317l0.683-0.731c0.376-0.404,0.354-1.037-0.049-1.414
		c-0.404-0.376-1.036-0.354-1.414,0.049l-0.683,0.731c-0.376,0.404-0.354,1.037,0.049,1.414
		C43.698,12.059,43.943,12.148,44.187,12.148z"/>
	<path d="M49.646,6.299c0.268,0,0.534-0.106,0.731-0.317l0.354-0.379c0.377-0.404,0.354-1.037-0.049-1.414
		c-0.405-0.376-1.036-0.354-1.414,0.049l-0.354,0.379c-0.377,0.404-0.354,1.037,0.049,1.414C49.157,6.21,49.402,6.299,49.646,6.299z
		"/>
	<path d="M46.916,9.223c0.267,0,0.534-0.106,0.73-0.317l0.683-0.73c0.377-0.403,0.355-1.036-0.048-1.413
		c-0.401-0.378-1.037-0.358-1.413,0.048l-0.683,0.73c-0.377,0.403-0.355,1.036,0.048,1.413C46.426,9.134,46.671,9.223,46.916,9.223z
		"/>
	<path d="M25.999,10.92c0.553,0,1-0.447,1-1v-1c0-0.553-0.447-1-1-1s-1,0.447-1,1v1C24.999,10.473,25.447,10.92,25.999,10.92z"/>
	<path d="M25.999,14.92c0.553,0,1-0.447,1-1v-1c0-0.553-0.447-1-1-1s-1,0.447-1,1v1C24.999,14.473,25.447,14.92,25.999,14.92z"/>
	<path d="M25.999,6.92c0.553,0,1-0.447,1-1v-1c0-0.553-0.447-1-1-1s-1,0.447-1,1v1C24.999,6.473,25.447,6.92,25.999,6.92z"/>
	<path d="M25.999,18.92c0.553,0,1-0.447,1-1v-1c0-0.553-0.447-1-1-1s-1,0.447-1,1v1C24.999,18.473,25.447,18.92,25.999,18.92z"/>
	<path d="M41.764,29.92h1c0.553,0,1-0.447,1-1s-0.447-1-1-1h-1c-0.553,0-1,0.447-1,1S41.211,29.92,41.764,29.92z"/>
	<path d="M38.764,27.92h-1c-0.553,0-1,0.447-1,1s0.447,1,1,1h1c0.553,0,1-0.447,1-1S39.317,27.92,38.764,27.92z"/>
	<path d="M49.764,27.92c-0.553,0-1,0.447-1,1s0.447,1,1,1h1c0.553,0,1-0.447,1-1s-0.447-1-1-1H49.764z"/>
	<path d="M45.764,29.92h1c0.553,0,1-0.447,1-1s-0.447-1-1-1h-1c-0.553,0-1,0.447-1,1S45.211,29.92,45.764,29.92z"/>
	<path d="M53.362,40.909c-2.008-3.795-8.981-7.912-9.288-8.092c-1.276-0.728-2.598-0.958-3.721-0.646
		c-0.844,0.234-1.532,0.768-1.995,1.546c-1.021,1.22-2.286,2.646-2.592,2.867c-2.37,1.604-4.252,1.414-6.295-0.629L17.985,24.47
		c-2.045-2.045-2.233-3.928-0.631-6.292c0.224-0.31,1.649-1.575,2.869-2.595c0.778-0.464,1.312-1.151,1.546-1.996
		c0.311-1.123,0.081-2.444-0.653-3.731c-0.173-0.296-4.289-7.27-8.085-9.277c-1.928-1.019-4.256-0.67-5.796,0.872L4.698,3.988
		C-2.704,11.39-1.334,20.583,8.66,30.576l14.705,14.706c4.539,4.54,8.937,7.326,13.068,8.281c1.096,0.253,2.17,0.38,3.224,0.38
		c3.717,0,7.169-1.573,10.296-4.7l2.537-2.537C54.031,45.164,54.381,42.835,53.362,40.909z M51.076,45.291l-2.537,2.537
		c-6.568,6.568-14.563,5.237-23.76-3.961L10.074,29.161c-9.197-9.196-10.53-17.19-3.962-23.76l2.537-2.537
		c0.566-0.566,1.313-0.862,2.07-0.862c0.467,0,0.939,0.112,1.376,0.344c3.294,1.743,7.256,8.454,7.289,8.511
		c0.449,0.787,0.62,1.608,0.457,2.196c-0.1,0.36-0.323,0.634-0.684,0.836l-0.15,0.104c-0.853,0.712-2.883,2.434-3.308,3.061
		c-0.612,0.904-1.018,1.792-1.231,2.665c-0.711-1.418-1.285-3.06-1.474-4.881c-0.058-0.549-0.542-0.94-1.099-0.892
		c-0.549,0.058-0.948,0.549-0.892,1.099c0.722,6.953,6.13,11.479,6.359,11.668c0.025,0.021,0.055,0.028,0.081,0.046L28.057,37.37
		c0.045,0.045,0.091,0.084,0.136,0.127c0.035,0.052,0.058,0.109,0.104,0.155c0.189,0.187,4.704,4.567,11.599,5.283
		c0.035,0.003,0.07,0.005,0.104,0.005c0.506,0,0.94-0.383,0.994-0.896c0.057-0.55-0.343-1.041-0.892-1.099
		c-2.114-0.219-3.987-0.839-5.548-1.558c0.766-0.23,1.544-0.612,2.333-1.146c0.628-0.426,2.349-2.455,3.06-3.308l0.104-0.151
		c0.202-0.359,0.476-0.583,0.836-0.684c0.584-0.159,1.408,0.007,2.185,0.45c1.879,1.102,7.073,4.56,8.521,7.296
		C52.2,42.991,51.992,44.375,51.076,45.291z"/>
	<path d="M39.788,23.026c-0.248-0.494-0.849-0.693-1.342-0.447l-0.895,0.447c-0.494,0.247-0.694,0.848-0.447,1.342
		c0.176,0.351,0.528,0.553,0.896,0.553c0.15,0,0.303-0.034,0.446-0.105l0.895-0.447C39.835,24.12,40.035,23.52,39.788,23.026z"/>
	<path d="M45.602,21.237l0.895-0.447c0.494-0.247,0.694-0.848,0.447-1.342c-0.248-0.494-0.849-0.692-1.342-0.447l-0.895,0.447
		c-0.494,0.247-0.694,0.848-0.447,1.342c0.176,0.351,0.528,0.553,0.896,0.553C45.306,21.342,45.458,21.308,45.602,21.237z"/>
	<path d="M48.734,19.554c0.15,0,0.303-0.034,0.446-0.105l0.895-0.447c0.494-0.247,0.694-0.848,0.447-1.342
		c-0.248-0.494-0.848-0.692-1.342-0.447l-0.895,0.447c-0.494,0.247-0.694,0.848-0.447,1.342
		C48.014,19.352,48.367,19.554,48.734,19.554z"/>
	<path d="M42.025,23.026l0.894-0.447c0.494-0.247,0.694-0.849,0.447-1.342c-0.248-0.494-0.848-0.691-1.342-0.447l-0.894,0.447
		c-0.494,0.247-0.694,0.849-0.447,1.342c0.176,0.351,0.528,0.553,0.896,0.553C41.729,23.131,41.881,23.097,42.025,23.026z"/>
	<path d="M30.615,18.843c0.126,0.053,0.256,0.077,0.385,0.077c0.392,0,0.763-0.231,0.923-0.615l0.385-0.923
		c0.213-0.51-0.028-1.096-0.538-1.308c-0.509-0.213-1.094,0.028-1.308,0.538l-0.385,0.923
		C29.864,18.045,30.105,18.631,30.615,18.843z"/>
	<path d="M35.23,7.766c0.126,0.053,0.256,0.077,0.385,0.077c0.392,0,0.763-0.231,0.923-0.615l0.385-0.923
		c0.213-0.51-0.028-1.096-0.538-1.308c-0.508-0.212-1.095,0.028-1.308,0.538l-0.385,0.923C34.479,6.968,34.72,7.554,35.23,7.766z"/>
	<path d="M33.692,11.458c0.126,0.053,0.256,0.077,0.385,0.077c0.392,0,0.763-0.231,0.923-0.615l0.385-0.923
		c0.213-0.51-0.028-1.096-0.538-1.308c-0.508-0.212-1.095,0.028-1.308,0.538l-0.385,0.923C32.941,10.66,33.182,11.246,33.692,11.458
		z"/>
	<path d="M32.153,15.151c0.126,0.053,0.256,0.077,0.385,0.077c0.392,0,0.763-0.231,0.923-0.615l0.385-0.923
		c0.213-0.51-0.028-1.096-0.538-1.308c-0.507-0.211-1.095,0.028-1.308,0.538l-0.385,0.923
		C31.402,14.353,31.643,14.939,32.153,15.151z"/>
</g>
<g>
</g>
<g>
</g>
<g>
</g>
<g>
</g>
<g>
</g>
<g>
</g>
<g>
</g>
<g>
</g>
<g>
</g>
<g>
</g>
<g>
</g>
<g>
</g>
<g>
</g>
<g>
</g>
<g>
</g>
</svg>
