<?xml version="1.0" encoding="UTF-8"?>
<svg xmlns="http://www.w3.org/2000/svg" id="Layer_2" data-name="Layer 2" viewBox="0 0 512 512" width="512" height="512"><path d="M499.563,86.656a8,8,0,0,0,12.027-9.186l-24-72A8,8,0,0,0,479.2.04l-80,8a8,8,0,0,0-4,14.36l25.806,19.355L371.835,112H248a8,8,0,0,0-5.869,2.563L.022,376,0,488,211.187,254.708l18.4,94A24.065,24.065,0,0,0,253.117,368h65.125L296.155,478.431A8.03,8.03,0,0,0,296,480v32H424V472.911l23.581-102.185,59.337-118.675a24,24,0,0,0-1.736-24.4l-64.409-92.938,41.33-59.7ZM371.786,312V296a8,8,0,0,0-8-8h-14a18.021,18.021,0,0,1-18-18V248h29.333l26.667,20v44Zm8-104h-56a8,8,0,0,0-8,8v54a34.038,34.038,0,0,0,34,34h6v8H277.909l-29.943-97.316L283.513,176H403.719l42.593,63.89-42.526,60.752V232A24.027,24.027,0,0,0,379.786,208Zm112.822,36.9L432.845,364.422a8.016,8.016,0,0,0-.64,1.779l-24,104A7.994,7.994,0,0,0,408,472H313.758l22.086-110.431A8,8,0,0,0,328,352H253.117a8.013,8.013,0,0,1-7.838-6.4L224.628,240.081l.465-.506,10.332-11.243,28.929,94.021A8,8,0,0,0,272,328h94.686l-10.809,70.793a7.989,7.989,0,0,0-.092,1.207v40h16V400.607L382.871,328H400a8,8,0,0,0,6.554-3.412l56-80a8,8,0,0,0,.1-9.025l-44.985-67.478,13.374-19.317,60.985,88A8,8,0,0,1,492.608,244.9Z"/><path d="M0,315.767l164.151-172.3,14.192,14.192A8,8,0,0,0,192,152V88a8,8,0,0,0-8-8H120a8,8,0,0,0-5.657,13.657L132.686,112,0,244.631Z"/></svg>
